<svg xmlns="http://www.w3.org/2000/svg" xmlns:xlink="http://www.w3.org/1999/xlink" fill="none" version="1.1" width="27.46533465385437" height="27.780001401901245" viewBox="0 0 27.46533465385437 27.780001401901245"><g><path d="M17.062033373069763,4.780953373069764L13.988933373069763,6.179813373069763Q13.799333373069762,6.266123373069763,13.645033373069763,6.406163373069763Q13.490833373069764,6.546203373069763,13.386633373069763,6.7266233730697635Q13.353933373069763,6.7833533730697635,13.326833373069762,6.8430133730697635Q13.299833373069763,6.902673373069764,13.278733373069763,6.964703373069764Q13.257733373069764,7.026723373069763,13.242833373069763,7.090513373069763Q13.227933373069764,7.154313373069763,13.219433373069764,7.219253373069763Q13.210833373069763,7.284193373069763,13.208733373069764,7.349663373069763Q13.206533373069764,7.415123373069763,13.210833373069763,7.480493373069764Q13.215133373069763,7.545853373069763,13.225833373069763,7.610483373069763Q13.236433373069763,7.6751033730697635,13.253433373069763,7.738373373069763Q13.270333373069763,7.8016533730697635,13.293433373069764,7.862953373069764Q13.316533373069763,7.924263373069763,13.345433373069763,7.983003373069764Q13.374433373069763,8.041753373069763,13.409033373069763,8.097383373069764Q13.443633373069764,8.153003373069764,13.483533373069763,8.204973373069762Q13.523333373069763,8.256943373069763,13.568133373069763,8.304753373069763Q13.612933373069763,8.352563373069763,13.662133373069762,8.395753373069763Q13.711433373069763,8.438943373069764,13.764633373069763,8.477103373069763Q13.817933373069764,8.515253373069763,13.874633373069763,8.548013373069764L17.243533373069763,10.493223373069764L17.039733373069765,13.878533373069763Q17.031833373069762,14.009633373069763,17.049733373069763,14.139733373069763Q17.067533373069764,14.269833373069764,17.110433373069764,14.393933373069764Q17.153233373069764,14.518133373069762,17.219533373069766,14.631433373069763Q17.285833373069764,14.744833373069763,17.372933373069763,14.843133373069763Q17.41633337306976,14.892133373069763,17.464433373069763,14.936633373069764Q17.51243337306976,14.981233373069763,17.564633373069764,15.020833373069763Q17.616833373069763,15.060333373069763,17.672633373069765,15.094633373069763Q17.728433373069763,15.128933373069763,17.787333373069764,15.157633373069762Q17.84623337306976,15.186333373069763,17.907633373069764,15.209033373069763Q17.969133373069763,15.231733373069764,18.032433373069765,15.248433373069764Q18.095833373069762,15.265033373069762,18.160533373069764,15.275333373069763Q18.225133373069763,15.285633373069762,18.290533373069763,15.289633373069764Q18.355933373069764,15.293533373069764,18.421433373069764,15.291033373069764Q18.486833373069764,15.288533373069763,18.551733373069762,15.279633373069764Q18.616633373069764,15.270733373069763,18.680333373069764,15.255533373069763Q18.74403337306976,15.240333373069763,18.805933373069763,15.218933373069763Q18.867933373069764,15.197533373069763,18.927433373069764,15.170233373069763Q18.986933373069764,15.142833373069763,19.043433373069764,15.109833373069764Q19.100033373069763,15.076733373069763,19.153033373069764,15.038333373069763Q19.206133373069765,14.999833373069762,19.255133373069764,14.956433373069764L22.102933373069764,12.431933373069763L25.831133373069765,13.195533373069763Q25.959833373069763,13.221933373069763,26.091233373069763,13.222633373069764Q26.222633373069762,13.223333373069764,26.351633373069763,13.198433373069763Q26.480533373069765,13.173533373069763,26.60223337306976,13.123933373069763Q26.723833373069763,13.074333373069763,26.833533373069763,13.001933373069763Q26.943033373069763,12.929533373069763,27.036433373069762,12.837133373069763Q27.12973337306976,12.744833373069763,27.203333373069764,12.636033373069763Q27.276833373069763,12.527233373069762,27.327733373069762,12.406133373069764Q27.378633373069764,12.285133373069764,27.404933373069763,12.156433373069763Q27.431233373069762,12.027733373069763,27.431933373069764,11.896433373069764Q27.432633373069763,11.765133373069764,27.407733373069764,11.636233373069762Q27.38283337306976,11.507233373069763,27.333233373069763,11.385633373069764Q27.28363337306976,11.264083373069763,27.211233373069764,11.154503373069764L25.341433373069762,8.323593373069762L27.286633373069762,4.9547133730697634Q27.390933373069764,4.774153373069764,27.435133373069764,4.570383373069763Q27.479233373069764,4.366623373069763,27.459133373069765,4.1591033730697635Q27.452733373069762,4.093913373069763,27.440033373069763,4.029643373069764Q27.427333373069764,3.965383373069763,27.408433373069762,3.902683373069763Q27.389533373069764,3.839973373069763,27.36453337306976,3.779423373069763Q27.339533373069763,3.7188733730697634,27.308733373069764,3.661063373069763Q27.277933373069764,3.603253373069763,27.241633373069764,3.548743373069763Q27.205333373069763,3.4942233730697634,27.163833373069764,3.443533373069763Q27.122333373069765,3.392843373069763,27.076033373069762,3.346463373069763Q27.029833373069764,3.3000833730697634,26.979233373069764,3.2584633730697634Q26.928633373069765,3.2168433730697634,26.874233373069764,3.180373373069763Q26.819833373069763,3.143913373069763,26.762133373069762,3.112953373069763Q26.70443337306976,3.082003373069763,26.643933373069764,3.056853373069763Q26.583433373069763,3.031703373069763,26.520733373069763,3.012603373069763Q26.458133373069764,2.993503373069763,26.393933373069764,2.9806433730697632Q26.329633373069765,2.967773373069763,26.264533373069764,2.9612633730697633Q26.199333373069763,2.9547533730697633,26.133833373069763,2.954663373069763Q26.068333373069763,2.954583373069763,26.003133373069762,2.960913373069763L22.643133373069762,3.287243373069763L20.127133373069764,0.44887237306976313Q19.983533373069765,0.2869733730697632,19.796233373069764,0.1787633730697631Q19.608933373069764,0.07055337306976317,19.396933373069764,0.027133373069763156Q19.332733373069765,0.01398337306976316,19.267633373069764,0.007193373069763087Q19.202433373069763,0.0003933730697631699,19.136933373069763,0.000023373069763188425Q19.071433373069762,-0.00035662693023685854,19.00623337306976,0.005693373069763252Q18.941033373069764,0.011743373069763141,18.87673337306976,0.024153373069763173Q18.812433373069762,0.036563373069763205,18.749633373069763,0.05521337306976326Q18.686833373069764,0.07387337306976316,18.626133373069763,0.09859337306976323Q18.565533373069762,0.12331337306976309,18.507533373069762,0.15386337306976317Q18.449633373069762,0.18440337306976318,18.39493337306976,0.2204833730697633Q18.340233373069765,0.2565633730697632,18.289433373069762,0.29782337306976325Q18.238533373069764,0.3390913730697632,18.191933373069762,0.3851423730697632Q18.145333373069764,0.43119337306976313,18.103533373069762,0.48158937306976324Q18.061633373069764,0.5319843730697632,18.024933373069764,0.5862383730697632Q17.988233373069765,0.6404923730697631,17.957033373069763,0.6980833730697632Q17.925833373069764,0.7556733730697632,17.900433373069763,0.8160453730697632Q17.875033373069762,0.8764173730697632,17.855633373069765,0.9389893730697632Q17.836233373069764,1.0015613730697632,17.823133373069762,1.0657303730697631L17.062033373069763,4.780953373069764ZM17.451033373069762,7.533783373069763L19.290733373069763,8.595993373069764Q19.370733373069765,8.642203373069762,19.443633373069762,8.699023373069764Q19.516533373069763,8.755833373069763,19.58093337306976,8.822163373069763Q19.645233373069765,8.888493373069764,19.69983337306976,8.963063373069764Q19.754433373069762,9.037643373069763,19.798233373069763,9.119033373069763Q19.842033373069764,9.200433373069764,19.874133373069764,9.287083373069763Q19.906333373069764,9.373743373069763,19.926133373069764,9.464003373069763Q19.946033373069763,9.554263373069762,19.953233373069764,9.646403373069763Q19.960433373069762,9.738543373069763,19.954933373069764,9.830793373069763L19.89503337306976,10.825603373069763L20.832833373069764,9.994253373069764Q20.949033373069764,9.891273373069764,21.085733373069765,9.817733373069764Q21.222533373069762,9.744193373069763,21.372433373069764,9.704043373069764Q21.522433373069763,9.663883373069764,21.677633373069764,9.659263373069763Q21.832733373069765,9.654633373069764,21.984833373069762,9.685783373069762L23.211233373069764,9.936963373069764L22.662133373069764,9.105493373069763Q22.611133373069762,9.028373373069762,22.571333373069763,8.944953373069763Q22.531533373069763,8.861543373069763,22.503633373069764,8.773433373069764Q22.47573337306976,8.685323373069764,22.460233373069762,8.594213373069763Q22.444733373069763,8.503093373069763,22.441933373069762,8.410703373069763Q22.43913337306976,8.318323373069763,22.449133373069763,8.226443373069763Q22.459133373069765,8.134553373069764,22.481733373069762,8.044933373069764Q22.504333373069763,7.955303373069763,22.539033373069763,7.869653373069763Q22.573733373069764,7.784003373069763,22.620033373069763,7.703953373069763L23.681433373069762,5.865623373069763L22.224933373069764,6.007083373069763Q22.067833373069764,6.022343373069763,21.911533373069762,6.000513373069763Q21.755333373069764,5.978693373069763,21.60843337306976,5.920993373069763Q21.461633373069763,5.863293373069763,21.332233373069762,5.7729133730697635Q21.20293337306976,5.682533373069763,21.098233373069764,5.5644633730697635L19.900333373069763,4.213143373069763L19.53823337306976,5.980933373069763Q19.506533373069765,6.135383373069764,19.439733373069764,6.278193373069763Q19.373033373069763,6.420993373069763,19.274733373069765,6.544293373069763Q19.176533373069763,6.667583373069763,19.052233373069765,6.764563373069763Q18.927933373069763,6.861543373069763,18.784433373069763,6.926853373069763L17.451033373069762,7.533783373069763ZM11.102363373069764,9.041903373069763Q11.200223373069763,9.008113373069763,11.291703373069764,8.959643373069763Q11.383233373069762,8.911173373069763,11.466133373069763,8.849173373069764Q11.549033373069763,8.787173373069763,11.621433373069763,8.713133373069763Q11.693733373069763,8.639093373069763,11.753833373069764,8.554783373069764Q11.813933373069764,8.470473373069762,11.860333373069762,8.377903373069763Q11.906633373069763,8.285333373069763,11.938233373069764,8.186723373069764Q11.969733373069763,8.088113373069763,11.985733373069763,7.985823373069763Q12.001633373069764,7.883533373069763,12.001633373069764,7.780003373069763Q12.001633373069764,7.714413373069763,11.995233373069762,7.649143373069763Q11.988833373069763,7.583883373069763,11.976033373069763,7.519553373069763Q11.963233373069762,7.455233373069763,11.944133373069763,7.392473373069763Q11.925133373069762,7.3297133730697634,11.900033373069764,7.2691133730697635Q11.874933373069764,7.208523373069763,11.844033373069763,7.150683373069763Q11.813133373069762,7.092843373069763,11.776633373069764,7.038313373069763Q11.740233373069763,6.983783373069763,11.698633373069763,6.933083373069763Q11.657033373069764,6.882383373069763,11.610633373069764,6.836013373069763Q11.564233373069763,6.789643373069763,11.513533373069762,6.748033373069763Q11.462833373069763,6.7064233730697635,11.408333373069762,6.669983373069763Q11.353833373069763,6.633553373069764,11.295983373069763,6.6026333730697635Q11.238143373069763,6.571723373069763,11.177543373069764,6.546623373069763Q11.116953373069764,6.521523373069763,11.054193373069763,6.502483373069763Q10.991433373069762,6.483443373069763,10.927113373069764,6.470653373069763Q10.862783373069764,6.457853373069764,10.797523373069764,6.451423373069763Q10.732253373069764,6.445003373069763,10.666663373069763,6.445003373069763Q10.373503373069763,6.445003373069763,10.107313373069763,6.567833373069763Q7.679313373069763,7.549063373069763,5.200523373069763,9.288813373069763Q1.7759053730697631,11.692433373069763,0.2111633730697633,14.390133373069764Q0.10695337306976316,14.551833373069764,0.05264337306976308,14.736433373069763Q-0.0016666269302367809,14.920933373069763,-0.0016666269302367809,15.113333373069763Q-0.0016666269302367809,15.178933373069762,0.004763373069763155,15.244233373069763Q0.01119337306976309,15.309433373069764,0.02398337306976317,15.373733373069763Q0.03678337306976309,15.438133373069762,0.055813373069763195,15.500833373069764Q0.07485337306976314,15.563633373069763,0.09995337306976326,15.624233373069764Q0.12505337306976316,15.684833373069763,0.15597337306976322,15.742633373069763Q0.18688337306976321,15.800533373069763,0.22332337306976324,15.855033373069762Q0.25976337306976327,15.909533373069763,0.30136337306976313,15.960233373069762Q0.3429713730697632,16.01093337306976,0.38934637306976316,16.057333373069763Q0.4357213730697632,16.103733373069765,0.4864183730697632,16.14533337306976Q0.5371163730697632,16.186933373069763,0.5916473730697632,16.223333373069764Q0.6461783730697632,16.259733373069764,0.7040193730697631,16.290733373069763Q0.7618593730697631,16.321633373069766,0.8224513730697632,16.346733373069764Q0.8830433730697631,16.371833373069762,0.9458033730697633,16.39083337306976Q1.0085633730697632,16.409933373069762,1.0728873730697632,16.422633373069765Q1.1372123730697632,16.435433373069763,1.202480373069763,16.441933373069762Q1.2677490730697631,16.448333373069765,1.3333333730697632,16.448333373069765Q1.425098773069763,16.448333373069765,1.5160013730697632,16.435733373069763Q1.606903373069763,16.423233373069763,1.6952323730697632,16.39833337306976Q1.7835623730697632,16.373433373069766,1.8676563730697633,16.336733373069762Q1.9517513730697633,16.300033373069763,2.0300293730697634,16.25213337306976Q2.1083073730697635,16.204233373069762,2.179297373069763,16.146033373069763Q2.250286373069763,16.087933373069763,2.3126513730697633,16.020633373069764Q2.375013373069763,15.953333373069762,2.427583373069763,15.878033373069764Q2.480153373069763,15.802833373069763,2.5219333730697633,15.721133373069764Q3.792573373069763,13.534933373069762,6.732473373069763,11.471533373069763Q8.959343373069764,9.908583373069764,11.102363373069764,9.041903373069763ZM14.605433373069763,12.969833373069763Q14.687333373069762,12.928133373069763,14.762733373069763,12.875633373069762Q14.838233373069762,12.823133373069764,14.905733373069763,12.760733373069764Q14.973333373069764,12.698333373069763,15.031633373069763,12.627333373069764Q15.090033373069764,12.556233373069762,15.138033373069764,12.477833373069764Q15.186133373069763,12.399533373069763,15.223033373069763,12.315233373069763Q15.259833373069764,12.231033373069764,15.284833373069763,12.142533373069764Q15.309833373069763,12.054033373069764,15.322433373069764,11.963033373069763Q15.335033373069763,11.871933373069764,15.335033373069763,11.780033373069763Q15.335033373069763,11.714433373069763,15.328533373069764,11.649133373069763Q15.322133373069763,11.583833373069764,15.309333373069764,11.519533373069763Q15.296533373069764,11.455233373069763,15.277533373069764,11.392433373069764Q15.258433373069764,11.329713373069763,15.233333373069764,11.269113373069763Q15.208233373069763,11.208523373069763,15.177333373069763,11.150683373069763Q15.146433373069764,11.092843373069764,15.110033373069763,11.038313373069764Q15.073533373069763,10.983783373069762,15.031933373069764,10.933083373069763Q14.990333373069763,10.882383373069763,14.944033373069763,10.836013373069763Q14.897633373069763,10.789633373069764,14.846933373069763,10.748033373069763Q14.796233373069763,10.706423373069763,14.741733373069764,10.669983373069764Q14.687133373069763,10.633553373069763,14.629333373069763,10.602633373069763Q14.571433373069762,10.571723373069764,14.510833373069763,10.546623373069764Q14.450333373069764,10.521523373069764,14.387533373069763,10.502483373069763Q14.324733373069764,10.483443373069763,14.260433373069763,10.470653373069764Q14.196133373069763,10.457853373069764,14.130833373069763,10.451433373069763Q14.065633373069764,10.445003373069763,14.000033373069764,10.445003373069763Q13.808233373069763,10.445003373069763,13.624333373069764,10.498953373069764Q13.440333373069763,10.552903373069762,13.279033373069764,10.656453373069763Q9.905583373069764,12.597333373069763,6.544763373069763,16.049833373069763Q1.9705623730697632,20.748733373069765,0.10090337306976327,25.933533373069764Q-0.0016666269302367809,26.179833373069762,-0.0016666269302367809,26.446633373069762Q-0.0016666269302367809,26.512233373069762,0.004763373069763155,26.577533373069762Q0.01119337306976309,26.642833373069763,0.02398337306976317,26.707133373069762Q0.03678337306976309,26.771433373069762,0.055813373069763195,26.834233373069765Q0.07485337306976314,26.896933373069764,0.09995337306976326,26.95753337306976Q0.12505337306976316,27.018133373069762,0.15597337306976322,27.075933373069763Q0.18688337306976321,27.133833373069763,0.22332337306976324,27.188333373069764Q0.2597533730697632,27.242833373069764,0.30136337306976313,27.293533373069764Q0.3429703730697632,27.344233373069763,0.38934537306976313,27.390633373069765Q0.4357213730697632,27.437033373069763,0.4864183730697632,27.478633373069762Q0.5371153730697632,27.520233373069765,0.5916473730697632,27.55663337306976Q0.6461783730697632,27.59313337306976,0.7040183730697632,27.624033373069764Q0.7618593730697631,27.654933373069763,0.8224513730697632,27.68003337306976Q0.8830433730697631,27.705133373069764,0.9458033730697633,27.72423337306976Q1.0085633730697632,27.743233373069764,1.0728873730697632,27.756033373069762Q1.1372123730697632,27.768833373069764,1.202480373069763,27.775233373069764Q1.2677490730697631,27.781633373069763,1.3333333730697632,27.781633373069763Q1.440037373069763,27.781633373069763,1.5453863730697632,27.764733373069763Q1.6507353730697631,27.747733373069764,1.7520543730697633,27.714333373069763Q1.8533743730697632,27.680833373069763,1.9480913730697633,27.631733373069764Q2.042808373069763,27.58253337306976,2.128517373069763,27.519033373069764Q2.2142273730697632,27.455433373069763,2.2887533730697633,27.379033373069763Q2.363283373069763,27.302733373069763,2.4247333730697633,27.215433373069764Q2.486183373069763,27.12823337306976,2.532993373069763,27.032333373069765Q2.579803373069763,26.936433373069764,2.6107933730697632,26.834333373069764Q4.285263373069763,22.193933373069765,8.455573373069763,17.909833373069763Q11.555633373069764,14.725233373069763,14.605433373069763,12.969833373069763ZM16.229833373069763,17.435833373069762Q16.333433373069763,17.341933373069764,16.415333373069764,17.228733373069765Q16.497133373069765,17.115433373069763,16.553833373069764,16.987633373069762Q16.610433373069764,16.859933373069765,16.639433373069764,16.723133373069764Q16.668333373069764,16.586433373069763,16.668333373069764,16.446633373069766Q16.668333373069764,16.381133373069765,16.661933373069765,16.315833373069765Q16.655433373069762,16.250533373069764,16.642633373069764,16.18623337306976Q16.62993337306976,16.121933373069766,16.610833373069763,16.059133373069763Q16.59183337306976,15.996333373069763,16.566733373069763,15.935833373069762Q16.541633373069764,15.875233373069763,16.510733373069762,15.817333373069763Q16.479733373069763,15.759533373069763,16.443333373069763,15.704933373069764Q16.406933373069762,15.650433373069763,16.365333373069763,15.599733373069764Q16.323733373069764,15.549033373069763,16.277333373069766,15.502633373069763Q16.230933373069764,15.456333373069763,16.18023337306976,15.414733373069764Q16.129533373069762,15.373133373069763,16.075033373069765,15.336633373069763Q16.020533373069764,15.300233373069764,15.962633373069764,15.269333373069763Q15.904833373069764,15.238433373069762,15.844233373069763,15.213333373069764Q15.783633373069764,15.188233373069764,15.720833373069762,15.169133373069764Q15.658133373069763,15.150133373069764,15.593733373069764,15.137333373069763Q15.529433373069763,15.124533373069763,15.464233373069764,15.118133373069764Q15.398933373069763,15.111633373069763,15.333333373069763,15.111633373069763Q15.193233373069763,15.111633373069763,15.056233373069762,15.140733373069763Q14.919233373069764,15.169833373069762,14.791233373069764,15.226633373069763Q14.663233373069763,15.283533373069764,14.549833373069763,15.365733373069764Q14.436433373069763,15.447933373069763,14.342533373069763,15.551933373069764Q12.695333373069763,17.204933373069764,10.980003373069763,19.32483337306976Q8.631853373069763,22.226633373069763,7.505413373069763,24.454733373069764Q7.331663373069763,24.761133373069764,7.331663373069763,25.113333373069764Q7.331663373069763,25.178933373069764,7.338093373069763,25.244233373069765Q7.344523373069763,25.309433373069762,7.357313373069763,25.373733373069765Q7.370113373069763,25.438133373069764,7.389153373069763,25.500833373069764Q7.408193373069763,25.563633373069763,7.433283373069763,25.624233373069764Q7.458383373069763,25.684833373069765,7.489303373069763,25.742633373069765Q7.520213373069764,25.80053337306976,7.556653373069763,25.855033373069762Q7.593093373069763,25.909533373069763,7.634693373069763,25.960233373069762Q7.676303373069763,26.010933373069765,7.7226833730697635,26.057333373069763Q7.769053373069763,26.103733373069762,7.819753373069763,26.145333373069764Q7.870453373069763,26.186933373069763,7.924983373069763,26.223333373069764Q7.979513373069763,26.259733373069764,8.037353373069763,26.290733373069763Q8.095193373069764,26.321633373069762,8.155783373069763,26.346733373069764Q8.216373373069764,26.371833373069762,8.279133373069763,26.390833373069764Q8.341893373069762,26.409933373069762,8.406223373069764,26.422633373069765Q8.470543373069763,26.435433373069763,8.535813373069765,26.441933373069762Q8.601083373069763,26.44833337306976,8.666663373069763,26.44833337306976Q8.763183373069763,26.44833337306976,8.858703373069762,26.434433373069762Q8.954223373069762,26.420533373069762,9.046743373069763,26.393133373069762Q9.139273373069763,26.365633373069763,9.226883373069764,26.325133373069765Q9.314493373069762,26.284633373069763,9.395363373069763,26.23193337306976Q9.476233373069762,26.179233373069764,9.548693373069764,26.115433373069763Q9.621143373069764,26.051733373069762,9.683673373069762,25.978133373069763Q9.746193373069763,25.904633373069764,9.797493373069763,25.822833373069763Q9.848793373069762,25.741133373069765,9.887803373069763,25.652833373069765Q10.885683373069764,23.680633373069764,13.053033373069763,21.002233373069764Q14.680833373069763,18.990533373069763,16.229833373069763,17.435833373069762Z" fill-rule="evenodd" fill="#D42D26" fill-opacity="1"/></g></svg>