<svg xmlns="http://www.w3.org/2000/svg" xmlns:xlink="http://www.w3.org/1999/xlink" width="1em" height="1em" preserveAspectRatio="xMidYMid meet" viewBox="0 0 32 32" style="-ms-transform: rotate(360deg); -webkit-transform: rotate(360deg); transform: rotate(360deg);"><path fill="currentColor" d="M26 22a3.86 3.86 0 0 0-2 .57l-3.09-3.1a6 6 0 0 0 0-6.94L24 9.43a3.86 3.86 0 0 0 2 .57a4 4 0 1 0-4-4a3.86 3.86 0 0 0 .57 2l-3.1 3.09a6 6 0 0 0-6.94 0L9.43 8A3.86 3.86 0 0 0 10 6a4 4 0 1 0-4 4a3.86 3.86 0 0 0 2-.57l3.09 3.1a6 6 0 0 0 0 6.94L8 22.57A3.86 3.86 0 0 0 6 22a4 4 0 1 0 4 4a3.86 3.86 0 0 0-.57-2l3.1-3.09a6 6 0 0 0 6.94 0l3.1 3.09a3.86 3.86 0 0 0-.57 2a4 4 0 1 0 4-4Zm0-18a2 2 0 1 1-2 2a2 2 0 0 1 2-2ZM4 6a2 2 0 1 1 2 2a2 2 0 0 1-2-2Zm2 22a2 2 0 1 1 2-2a2 2 0 0 1-2 2Zm10-8a4 4 0 1 1 4-4a4 4 0 0 1-4 4Zm10 8a2 2 0 1 1 2-2a2 2 0 0 1-2 2Z"/></svg>